<mxfile host="app.diagrams.net" modified="2023-09-02T15:00:29.210Z" agent="Mozilla/5.0 (Windows NT 10.0; Win64; x64) AppleWebKit/537.36 (KHTML, like Gecko) Chrome/116.0.0.0 Safari/537.36" version="21.7.2" etag="2XWNiUNTn1QChTMGWy0z" type="github">
  <diagram name="Page-1" id="Wjl_NimPtOwkiegFbr1h">
    <mxGraphModel>
      <root>
        <mxCell id="0" />
        <mxCell id="1" parent="0" />
      </root>
    </mxGraphModel>
  </diagram>
</mxfile>
